<?xml version="1.0" encoding="utf-8"?>
<!-- Generator: Adobe Illustrator 16.0.0, SVG Export Plug-In . SVG Version: 6.00 Build 0)  -->
<!DOCTYPE svg PUBLIC "-//W3C//DTD SVG 1.1//EN" "http://www.w3.org/Graphics/SVG/1.1/DTD/svg11.dtd">
<svg version="1.1" id="Layer_1" xmlns="http://www.w3.org/2000/svg" xmlns:xlink="http://www.w3.org/1999/xlink" x="0px" y="0px"
	 width="335.986px" height="235.19px" viewBox="0 0 335.986 235.19" enable-background="new 0 0 335.986 235.19"
	 xml:space="preserve">
<g>
	<g>
		<rect fill="#80D8DD" width="335.986" height="235.191"/>
	</g>
</g>
<g opacity="0.1">
	<g>
		<path fill="#1D1D1B" d="M130.375,91.683c0,56.622,41.546,80.435,41.546,80.435s41.551-23.812,41.551-80.435l-41.551-15.556
			L130.375,91.683z"/>
		<path d="M171.921,172.693l-0.249-0.143c-0.418-0.239-41.797-24.607-41.797-80.868v-0.347l42.046-15.743l0.176,0.065l41.875,15.677
			v0.347c0,56.261-41.384,80.629-41.802,80.868L171.921,172.693z M130.875,92.029c0.089,28.919,11.274,49.013,20.664,60.792
			c9.326,11.7,18.743,17.715,20.381,18.713c3.434-2.106,40.89-26.359,41.051-79.505l-41.05-15.369L130.875,92.029z"/>
	</g>
	<g>
		<circle fill="#1D1D1B" cx="171.921" cy="40.12" r="18.428"/>
		<path d="M171.921,59.048c-10.437,0-18.928-8.491-18.928-18.928s8.491-18.928,18.928-18.928c10.437,0,18.928,8.491,18.928,18.928
			S182.357,59.048,171.921,59.048z M171.921,22.192c-9.885,0-17.928,8.042-17.928,17.928s8.042,17.928,17.928,17.928
			c9.886,0,17.928-8.042,17.928-17.928S181.807,22.192,171.921,22.192z"/>
	</g>
	<g>
		<circle fill="#1D1D1B" cx="278.623" cy="69.41" r="24.514"/>
		<path d="M278.623,94.424c-13.792,0-25.013-11.221-25.013-25.014s11.221-25.014,25.013-25.014
			c13.793,0,25.014,11.221,25.014,25.014S292.416,94.424,278.623,94.424z M278.623,45.396c-13.24,0-24.013,10.772-24.013,24.014
			s10.772,24.014,24.013,24.014c13.241,0,24.014-10.772,24.014-24.014S291.864,45.396,278.623,45.396z"/>
	</g>
	<g>
		<circle fill="#1D1D1B" cx="63.748" cy="69.41" r="24.514"/>
		<path d="M63.748,94.424c-13.792,0-25.014-11.221-25.014-25.014s11.221-25.014,25.014-25.014c13.792,0,25.013,11.221,25.013,25.014
			S77.54,94.424,63.748,94.424z M63.748,45.396c-13.241,0-24.014,10.772-24.014,24.014s10.772,24.014,24.014,24.014
			c13.241,0,24.013-10.772,24.013-24.014S76.989,45.396,63.748,45.396z"/>
	</g>
	<g>
		<circle fill="#1D1D1B" cx="170.45" cy="206.518" r="18.428"/>
		<path d="M170.45,225.445c-10.437,0-18.928-8.491-18.928-18.928s8.491-18.928,18.928-18.928c10.437,0,18.928,8.491,18.928,18.928
			S180.887,225.445,170.45,225.445z M170.45,188.59c-9.885,0-17.928,8.042-17.928,17.928s8.042,17.928,17.928,17.928
			c9.886,0,17.928-8.042,17.928-17.928S180.336,188.59,170.45,188.59z"/>
	</g>
	<g>
		<circle fill="#1D1D1B" cx="63.748" cy="177.227" r="24.514"/>
		<path d="M63.748,202.24c-13.792,0-25.014-11.221-25.014-25.014s11.221-25.014,25.014-25.014c13.792,0,25.013,11.221,25.013,25.014
			S77.54,202.24,63.748,202.24z M63.748,153.213c-13.241,0-24.014,10.772-24.014,24.014s10.772,24.014,24.014,24.014
			c13.241,0,24.013-10.772,24.013-24.014S76.989,153.213,63.748,153.213z"/>
	</g>
	<g>
		<circle fill="#1D1D1B" cx="278.623" cy="177.227" r="24.514"/>
		<path d="M278.623,202.24c-13.792,0-25.013-11.221-25.013-25.014s11.221-25.014,25.013-25.014
			c13.793,0,25.014,11.221,25.014,25.014S292.416,202.24,278.623,202.24z M278.623,153.213c-13.24,0-24.013,10.772-24.013,24.014
			s10.772,24.014,24.013,24.014c13.241,0,24.014-10.772,24.014-24.014S291.864,153.213,278.623,153.213z"/>
	</g>
</g>
<g>
	<path fill="#FFFFFF" d="M166.354,194.717h-0.168v-1h0.168c1.271,0,2.551-0.03,3.807-0.09l0.047,0.998
		C168.937,194.687,167.64,194.717,166.354,194.717z M162.163,194.607c-1.341-0.069-2.69-0.174-4.011-0.31l0.103-0.994
		c1.304,0.134,2.636,0.236,3.96,0.306L162.163,194.607z M174.219,194.331l-0.098-0.995c1.319-0.131,2.646-0.296,3.942-0.489
		l0.148,0.988C176.898,194.031,175.555,194.198,174.219,194.331z M154.161,193.785c-1.314-0.203-2.646-0.443-3.959-0.715
		l0.202-0.979c1.296,0.268,2.612,0.505,3.91,0.705L154.161,193.785z M182.175,193.139l-0.199-0.98
		c1.3-0.263,2.603-0.562,3.873-0.888l0.248,0.969C184.81,192.569,183.49,192.872,182.175,193.139z M146.283,192.154
		c-1.297-0.338-2.598-0.713-3.866-1.114l0.302-0.953c1.252,0.396,2.537,0.766,3.817,1.101L146.283,192.154z M189.967,191.141
		l-0.297-0.955c1.267-0.395,2.532-0.824,3.762-1.277l0.346,0.938C192.532,190.306,191.25,190.741,189.967,191.141z M138.603,189.727
		c-1.24-0.464-2.498-0.971-3.739-1.507l0.396-0.918c1.226,0.529,2.468,1.03,3.693,1.487L138.603,189.727z M197.509,188.363
		l-0.393-0.92c1.207-0.516,2.419-1.071,3.604-1.651l0.439,0.898C199.96,187.278,198.731,187.841,197.509,188.363z M131.207,186.523
		c-1.196-0.593-2.396-1.226-3.564-1.88l0.489-0.873c1.153,0.646,2.337,1.271,3.519,1.856L131.207,186.523z M204.723,184.833
		l-0.484-0.875c1.154-0.64,2.306-1.316,3.422-2.011l0.527,0.85C207.058,183.5,205.892,184.185,204.723,184.833z M124.18,182.585
		c-1.129-0.71-2.258-1.461-3.354-2.23l0.575-0.818c1.082,0.761,2.196,1.501,3.311,2.203L124.18,182.585z M211.546,180.587
		l-0.57-0.82c1.074-0.747,2.151-1.537,3.202-2.348l0.611,0.791C213.726,179.031,212.634,179.831,211.546,180.587z M117.591,177.959
		c-1.045-0.816-2.091-1.677-3.109-2.557l0.654-0.756c1.005,0.869,2.039,1.718,3.07,2.523L117.591,177.959z M217.91,175.673
		l-0.65-0.76c0.998-0.854,1.991-1.748,2.951-2.658l0.688,0.725C219.927,173.902,218.921,174.809,217.91,175.673z M111.506,172.691
		c-0.965-0.924-1.918-1.885-2.835-2.856l0.728-0.686c0.905,0.959,1.847,1.907,2.799,2.819L111.506,172.691z M223.748,170.139
		l-0.723-0.689c0.903-0.947,1.802-1.938,2.669-2.944l0.758,0.652C225.573,168.177,224.664,169.18,223.748,170.139z M105.985,166.842
		c-0.869-1.019-1.721-2.07-2.532-3.125l0.793-0.609c0.8,1.041,1.642,2.079,2.5,3.086L105.985,166.842z M229.001,164.043
		l-0.789-0.613c0.814-1.05,1.608-2.126,2.359-3.2l0.82,0.572C230.631,161.891,229.826,162.98,229.001,164.043z M101.083,160.468
		c-0.764-1.105-1.505-2.237-2.202-3.364l0.851-0.525c0.688,1.112,1.419,2.229,2.174,3.321L101.083,160.468z M233.615,157.443
		l-0.848-0.531c0.705-1.127,1.386-2.278,2.024-3.423l0.873,0.486C235.02,155.135,234.329,156.302,233.615,157.443z M96.853,153.635
		c-0.643-1.166-1.265-2.366-1.85-3.566l0.899-0.438c0.577,1.186,1.191,2.37,1.826,3.521L96.853,153.635z M237.537,150.407
		l-0.896-0.441c0.584-1.188,1.145-2.404,1.666-3.614l0.918,0.396C238.697,147.973,238.129,149.204,237.537,150.407z M93.339,146.413
		c-0.522-1.227-1.019-2.483-1.476-3.733l0.939-0.344c0.452,1.234,0.941,2.475,1.457,3.687L93.339,146.413z M240.725,143.006
		l-0.938-0.348c0.459-1.237,0.892-2.505,1.289-3.768l0.953,0.299C241.628,140.469,241.189,141.753,240.725,143.006z M90.576,138.867
		c-0.396-1.278-0.762-2.582-1.09-3.873l0.97-0.246c0.323,1.274,0.685,2.562,1.075,3.824L90.576,138.867z M243.138,135.32
		l-0.969-0.25c0.33-1.276,0.631-2.579,0.896-3.871l0.98,0.201C243.776,132.708,243.472,134.027,243.138,135.32z M88.596,131.07
		c-0.262-1.31-0.494-2.644-0.689-3.965l0.989-0.146c0.192,1.305,0.421,2.622,0.68,3.914L88.596,131.07z M244.75,127.438l-0.988-0.15
		c0.198-1.298,0.365-2.624,0.498-3.941l0.994,0.1C245.12,124.78,244.95,126.124,244.75,127.438z M87.42,123.111
		c-0.128-1.331-0.224-2.681-0.285-4.013l0.999-0.045c0.06,1.314,0.154,2.647,0.281,3.962L87.42,123.111z M245.556,119.436
		l-0.998-0.051c0.065-1.309,0.099-2.645,0.099-3.971h1C245.656,116.756,245.622,118.109,245.556,119.436z M88.051,115.079l-1-0.004
		c0.005-1.337,0.045-2.689,0.117-4.021l0.998,0.054C88.095,112.423,88.057,113.759,88.051,115.079z M244.587,112.105
		c-0.055-1.325-0.144-2.658-0.265-3.964l0.996-0.092c0.122,1.323,0.212,2.673,0.269,4.014L244.587,112.105z M88.481,107.148
		l-0.994-0.104c0.139-1.328,0.314-2.67,0.521-3.989l0.988,0.154C88.792,104.511,88.619,105.836,88.481,107.148z M243.858,104.196
		c-0.188-1.312-0.412-2.63-0.663-3.917l0.98-0.192c0.256,1.304,0.481,2.638,0.673,3.967L243.858,104.196z M89.71,99.3l-0.979-0.205
		c0.274-1.312,0.585-2.63,0.924-3.917l0.967,0.255C90.289,96.703,89.981,98.004,89.71,99.3z M242.332,96.401
		c-0.32-1.285-0.677-2.573-1.06-3.829l0.957-0.291c0.387,1.272,0.748,2.577,1.073,3.878L242.332,96.401z M91.731,91.619
		l-0.953-0.304c0.405-1.271,0.85-2.553,1.322-3.81l0.937,0.352C92.57,89.098,92.131,90.364,91.731,91.619z M240.02,88.803
		c-0.452-1.247-0.938-2.489-1.442-3.693l0.922-0.387c0.512,1.218,1.003,2.476,1.46,3.739L240.02,88.803z M94.533,84.168
		l-0.917-0.399c0.536-1.231,1.109-2.46,1.704-3.653l0.895,0.446C95.628,81.739,95.062,82.952,94.533,84.168z M236.949,81.495
		c-0.572-1.188-1.182-2.376-1.811-3.529l0.877-0.479c0.639,1.169,1.255,2.372,1.834,3.575L236.949,81.495z M98.078,77.047
		l-0.871-0.491c0.655-1.163,1.35-2.327,2.065-3.458l0.846,0.534C99.412,74.749,98.725,75.898,98.078,77.047z M233.149,74.531
		c-0.691-1.125-1.418-2.246-2.16-3.33l0.824-0.565c0.753,1.098,1.488,2.232,2.188,3.373L233.149,74.531z M102.328,70.325
		l-0.817-0.576c0.772-1.094,1.581-2.181,2.404-3.23l0.787,0.617C103.888,68.172,103.089,69.245,102.328,70.325z M228.662,67.984
		c-0.793-1.04-1.629-2.082-2.486-3.097l0.764-0.646c0.868,1.027,1.716,2.083,2.518,3.136L228.662,67.984z M107.231,64.07
		l-0.755-0.656c0.875-1.006,1.789-2.005,2.716-2.97l0.721,0.693C108.998,62.09,108.095,63.077,107.231,64.07z M223.535,61.919
		c-0.897-0.959-1.835-1.912-2.787-2.831l0.695-0.72c0.964,0.932,1.913,1.896,2.822,2.868L223.535,61.919z M112.739,58.344
		l-0.685-0.729c0.973-0.915,1.982-1.816,3-2.68l0.647,0.763C114.697,56.551,113.7,57.441,112.739,58.344z M217.821,56.4
		c-0.997-0.871-2.027-1.724-3.06-2.538l0.619-0.785c1.046,0.824,2.088,1.688,3.099,2.569L217.821,56.4z M118.793,53.205
		l-0.608-0.794c1.061-0.812,2.155-1.607,3.253-2.363l0.567,0.824C120.92,51.618,119.84,52.403,118.793,53.205z M211.576,51.482
		c-1.078-0.764-2.188-1.51-3.302-2.216l0.537-0.844c1.126,0.715,2.251,1.471,3.343,2.245L211.576,51.482z M125.331,48.704
		l-0.524-0.852c1.14-0.702,2.308-1.382,3.474-2.021l0.48,0.877C127.61,47.338,126.456,48.01,125.331,48.704z M204.865,47.22
		c-1.156-0.653-2.338-1.283-3.512-1.871l0.447-0.895c1.189,0.596,2.386,1.233,3.557,1.895L204.865,47.22z M132.286,44.89l-0.436-0.9
		c1.203-0.582,2.434-1.14,3.658-1.657l0.389,0.921C134.688,43.764,133.474,44.314,132.286,44.89z M197.751,43.659
		c-1.216-0.532-2.456-1.038-3.686-1.503l0.354-0.936c1.246,0.472,2.502,0.984,3.732,1.523L197.751,43.659z M139.587,41.804
		l-0.342-0.939c1.258-0.458,2.542-0.888,3.816-1.278l0.293,0.956C142.097,40.928,140.83,41.353,139.587,41.804z M190.307,40.841
		c-1.257-0.403-2.539-0.779-3.812-1.117l0.256-0.967c1.29,0.342,2.59,0.723,3.861,1.131L190.307,40.841z M147.181,39.475
		l-0.244-0.97c1.294-0.326,2.615-0.623,3.925-0.882l0.194,0.981C149.763,38.86,148.458,39.153,147.181,39.475z M182.627,38.804
		c-1.29-0.272-2.604-0.516-3.905-0.723l0.156-0.987c1.319,0.209,2.649,0.456,3.956,0.731L182.627,38.804z M154.972,37.931
		l-0.145-0.989c1.318-0.192,2.663-0.354,3.995-0.479l0.094,0.996C157.6,37.583,156.273,37.742,154.972,37.931z M174.785,37.559
		c-1.305-0.14-2.637-0.249-3.96-0.323l0.057-0.998c1.339,0.075,2.688,0.185,4.011,0.327L174.785,37.559z M162.88,37.186
		l-0.044-0.999c1.161-0.051,2.344-0.077,3.517-0.077l0.506,0.001l-0.006,1l-0.5-0.001C165.195,37.11,164.026,37.136,162.88,37.186z"
		/>
</g>
<g>
	<path fill="#FFFFFF" d="M165.084,114.657l-2.54-3.09l0.772-0.635l2.54,3.09L165.084,114.657z M160.005,108.476l-2.54-3.09
		l0.772-0.635l2.54,3.09L160.005,108.476z M154.925,102.296l-2.54-3.09l0.772-0.635l2.54,3.09L154.925,102.296z M149.846,96.115
		l-2.54-3.09l0.772-0.635l2.54,3.09L149.846,96.115z M144.767,89.935l-2.54-3.09l0.772-0.635l2.54,3.09L144.767,89.935z
		 M139.687,83.754l-2.54-3.09l0.772-0.635l2.54,3.09L139.687,83.754z M134.607,77.574l-2.54-3.09l0.772-0.635l2.54,3.09
		L134.607,77.574z M129.528,71.393l-2.54-3.09l0.772-0.635l2.54,3.09L129.528,71.393z M124.449,65.213l-2.54-3.09l0.772-0.635
		l2.54,3.09L124.449,65.213z M119.369,59.032l-2.54-3.09l0.772-0.635l2.54,3.09L119.369,59.032z M114.29,52.852l-2.54-3.09
		l0.772-0.635l2.54,3.09L114.29,52.852z M109.21,46.671l-2.54-3.09l0.772-0.635l2.54,3.09L109.21,46.671z M104.13,40.491l-2.54-3.09
		l0.772-0.635l2.54,3.09L104.13,40.491z M99.051,34.31l-2.54-3.09l0.772-0.635l2.54,3.09L99.051,34.31z M93.972,28.13l-2.54-3.09
		l0.772-0.635l2.54,3.09L93.972,28.13z M88.892,21.949l-2.54-3.09l0.772-0.635l2.54,3.09L88.892,21.949z M83.812,15.769l-2.54-3.09
		l0.772-0.635l2.54,3.09L83.812,15.769z M78.733,9.588l-2.54-3.09l0.772-0.635l2.54,3.09L78.733,9.588z M73.653,3.408l-2.54-3.09
		l0.772-0.635l2.54,3.09L73.653,3.408z"/>
</g>
<g>
	<path fill="#FFFFFF" d="M70.628,234.37l-0.771-0.637l2.543-3.087l0.771,0.637L70.628,234.37z M75.715,228.196l-0.771-0.637
		l2.543-3.087l0.771,0.637L75.715,228.196z M80.802,222.021l-0.771-0.637l2.543-3.087l0.771,0.637L80.802,222.021z M85.89,215.848
		l-0.771-0.637l2.543-3.087l0.771,0.637L85.89,215.848z M90.977,209.673l-0.771-0.637l2.543-3.087l0.771,0.637L90.977,209.673z
		 M96.063,203.499l-0.771-0.637l2.543-3.087l0.771,0.637L96.063,203.499z M101.151,197.325l-0.771-0.637l2.543-3.088l0.771,0.637
		L101.151,197.325z M106.238,191.15l-0.771-0.637l2.543-3.087l0.771,0.637L106.238,191.15z M111.325,184.977l-0.771-0.637
		l2.543-3.088l0.771,0.637L111.325,184.977z M116.412,178.802l-0.771-0.637l2.543-3.087l0.771,0.637L116.412,178.802z
		 M121.499,172.628l-0.771-0.637l2.543-3.087l0.771,0.637L121.499,172.628z M126.586,166.453l-0.771-0.637l2.544-3.087l0.771,0.637
		L126.586,166.453z M131.673,160.279l-0.771-0.637l2.543-3.087l0.771,0.637L131.673,160.279z M136.76,154.104l-0.771-0.637
		l2.543-3.087l0.771,0.637L136.76,154.104z M141.847,147.931l-0.771-0.637l2.544-3.087l0.771,0.637L141.847,147.931z
		 M146.935,141.757l-0.771-0.637l2.543-3.088l0.771,0.637L146.935,141.757z M152.021,135.582l-0.771-0.637l2.543-3.087l0.771,0.637
		L152.021,135.582z M157.108,129.408l-0.771-0.637l2.544-3.088l0.771,0.637L157.108,129.408z M162.196,123.233l-0.771-0.637
		l2.543-3.087l0.771,0.637L162.196,123.233z"/>
</g>
<g>
	<path fill="#FFFFFF" d="M0.067,119.929l-0.009-1l4-0.035l0.009,1L0.067,119.929z M8.067,119.858l-0.009-1l4-0.036l0.009,1
		L8.067,119.858z M16.067,119.787l-0.009-1l4-0.036l0.009,1L16.067,119.787z M24.066,119.716l-0.009-1l4-0.036l0.009,1
		L24.066,119.716z M32.066,119.645l-0.009-1l4-0.036l0.009,1L32.066,119.645z M40.066,119.573l-0.009-1l4-0.035l0.009,1
		L40.066,119.573z M48.065,119.502l-0.009-1l4-0.036l0.009,1L48.065,119.502z M56.065,119.431l-0.009-1l4-0.036l0.009,1
		L56.065,119.431z M64.065,119.359l-0.009-1l4-0.036l0.009,1L64.065,119.359z M72.064,119.288l-0.009-1l4-0.036l0.009,1
		L72.064,119.288z M80.064,119.217l-0.009-1l4-0.036l0.009,1L80.064,119.217z M88.064,119.146l-0.009-1l4-0.036l0.009,1
		L88.064,119.146z M96.064,119.075l-0.009-1l4-0.036l0.009,1L96.064,119.075z M104.063,119.004l-0.009-1l4-0.036l0.009,1
		L104.063,119.004z M112.063,118.933l-0.009-1l4-0.036l0.009,1L112.063,118.933z M120.063,118.862l-0.009-1l4-0.036l0.009,1
		L120.063,118.862z M128.062,118.791l-0.009-1l4-0.036l0.009,1L128.062,118.791z M136.062,118.719l-0.009-1l4-0.036l0.009,1
		L136.062,118.719z M144.062,118.648l-0.009-1l4-0.036l0.009,1L144.062,118.648z M152.062,118.577l-0.009-1l4-0.036l0.009,1
		L152.062,118.577z M160.061,118.506l-0.009-1l4-0.036l0.009,1L160.061,118.506z"/>
</g>
<g>
	<path fill="#FFFFFF" d="M169.191,114.539l-0.771-0.637l2.547-3.084l0.771,0.637L169.191,114.539z M174.285,108.371l-0.771-0.637
		l2.547-3.084l0.771,0.637L174.285,108.371z M179.379,102.202l-0.771-0.637l2.547-3.084l0.771,0.637L179.379,102.202z
		 M184.473,96.033l-0.771-0.637l2.547-3.084l0.771,0.637L184.473,96.033z M189.566,89.864l-0.771-0.637l2.547-3.084l0.771,0.637
		L189.566,89.864z M194.66,83.695l-0.771-0.637l2.547-3.084l0.771,0.637L194.66,83.695z M199.754,77.526l-0.771-0.637l2.547-3.084
		l0.771,0.637L199.754,77.526z M204.848,71.357l-0.771-0.637l2.547-3.084l0.771,0.637L204.848,71.357z M209.941,65.188l-0.771-0.637
		l2.547-3.084l0.771,0.637L209.941,65.188z M215.035,59.02l-0.771-0.637l2.547-3.084l0.771,0.637L215.035,59.02z M220.129,52.851
		l-0.771-0.637l2.547-3.084l0.771,0.637L220.129,52.851z M225.222,46.682l-0.771-0.637l2.547-3.084l0.771,0.637L225.222,46.682z
		 M230.315,40.513l-0.771-0.637l2.547-3.084l0.771,0.637L230.315,40.513z M235.409,34.345l-0.771-0.637l2.547-3.084l0.771,0.637
		L235.409,34.345z M240.503,28.176l-0.771-0.637l2.547-3.084l0.771,0.637L240.503,28.176z M245.597,22.007l-0.771-0.637l2.547-3.084
		l0.771,0.637L245.597,22.007z M250.69,15.838l-0.771-0.637l2.547-3.084l0.771,0.637L250.69,15.838z M255.784,9.669l-0.771-0.637
		l2.547-3.084l0.771,0.637L255.784,9.669z M260.878,3.5l-0.771-0.637l2.547-3.084l0.771,0.637L260.878,3.5z"/>
</g>
<g>
	<path fill="#FFFFFF" d="M264.033,233.809l-2.547-3.084l0.771-0.637l2.547,3.084L264.033,233.809z M258.939,227.641l-2.547-3.085
		l0.771-0.637l2.547,3.085L258.939,227.641z M253.846,221.472l-2.547-3.085l0.771-0.637l2.547,3.085L253.846,221.472z
		 M248.752,215.303l-2.547-3.085l0.771-0.637l2.547,3.085L248.752,215.303z M243.658,209.134l-2.547-3.085l0.771-0.637l2.547,3.085
		L243.658,209.134z M238.564,202.965l-2.547-3.084l0.771-0.637l2.547,3.084L238.564,202.965z M233.471,196.796l-2.547-3.084
		l0.771-0.637l2.547,3.084L233.471,196.796z M228.377,190.627l-2.547-3.084l0.771-0.637l2.547,3.084L228.377,190.627z
		 M223.283,184.458l-2.547-3.084l0.771-0.637l2.547,3.084L223.283,184.458z M218.189,178.289l-2.547-3.084l0.771-0.637l2.547,3.084
		L218.189,178.289z M213.096,172.121l-2.547-3.085l0.771-0.637l2.547,3.085L213.096,172.121z M208.002,165.952l-2.547-3.085
		l0.771-0.637l2.547,3.085L208.002,165.952z M202.908,159.783l-2.546-3.085l0.771-0.637l2.546,3.085L202.908,159.783z
		 M197.815,153.614l-2.547-3.085l0.771-0.637l2.547,3.085L197.815,153.614z M192.722,147.445l-2.547-3.084l0.771-0.637l2.547,3.084
		L192.722,147.445z M187.628,141.276l-2.547-3.084l0.771-0.637l2.547,3.084L187.628,141.276z M182.534,135.107l-2.547-3.084
		l0.771-0.637l2.547,3.084L182.534,135.107z M177.44,128.938l-2.547-3.084l0.771-0.637l2.547,3.084L177.44,128.938z M172.347,122.77
		l-2.547-3.084l0.771-0.637l2.547,3.084L172.347,122.77z"/>
</g>
<g>
	<path fill="#FFFFFF" d="M334.471,119.47l-3.999-0.036l0.01-1l3.999,0.036L334.471,119.47z M326.472,119.398l-4-0.035l0.01-1
		l4,0.036L326.472,119.398z M318.472,119.328l-4-0.036l0.01-1l4,0.036L318.472,119.328z M310.472,119.257l-3.999-0.035l0.01-1
		l3.999,0.036L310.472,119.257z M302.474,119.186l-4-0.035l0.008-1l4,0.035L302.474,119.186z M294.474,119.115l-4-0.035l0.008-1
		l4,0.035L294.474,119.115z M286.474,119.044l-4-0.035l0.008-1l4,0.035L286.474,119.044z M278.474,118.974l-4-0.036l0.01-1l4,0.036
		L278.474,118.974z M270.474,118.903l-4-0.036l0.01-1l4,0.036L270.474,118.903z M262.474,118.832l-4-0.036l0.01-1l4,0.036
		L262.474,118.832z M254.475,118.761l-4-0.036l0.01-1l4,0.036L254.475,118.761z M246.475,118.69l-4-0.036l0.01-1l4,0.036
		L246.475,118.69z M238.476,118.619l-4-0.035l0.008-1l4,0.035L238.476,118.619z M230.477,118.548l-4-0.035l0.009-1l4,0.035
		L230.477,118.548z M222.477,118.478l-4-0.035l0.009-1l4,0.035L222.477,118.478z M214.477,118.407l-4-0.035l0.009-1l4,0.035
		L214.477,118.407z M206.477,118.336l-4-0.036l0.01-1l4,0.036L206.477,118.336z M198.477,118.265l-4-0.036l0.01-1l4,0.036
		L198.477,118.265z M190.477,118.194l-4-0.036l0.01-1l4,0.036L190.477,118.194z M182.478,118.124l-4-0.036l0.01-1l4,0.036
		L182.478,118.124z M174.478,118.053l-4-0.036l0.01-1l4,0.036L174.478,118.053z"/>
</g>
<g>
	<line fill="#FFFFFF" x1="228.152" y1="16.358" x2="249.611" y2="16.358"/>
	<path fill="#1D1D1B" d="M249.611,16.858h-21.459c-0.276,0-0.5-0.224-0.5-0.5s0.224-0.5,0.5-0.5h21.459c0.276,0,0.5,0.224,0.5,0.5
		S249.888,16.858,249.611,16.858z"/>
</g>
<g>
	<line fill="#FFFFFF" x1="216.033" y1="21.334" x2="237.492" y2="21.334"/>
	<path fill="#1D1D1B" d="M237.492,21.834h-21.459c-0.276,0-0.5-0.224-0.5-0.5s0.224-0.5,0.5-0.5h21.459c0.276,0,0.5,0.224,0.5,0.5
		S237.769,21.834,237.492,21.834z"/>
</g>
<g>
	<line fill="#FFFFFF" x1="246.101" y1="21.334" x2="256.829" y2="21.334"/>
	<path fill="#1D1D1B" d="M256.829,21.834h-10.729c-0.276,0-0.5-0.224-0.5-0.5s0.224-0.5,0.5-0.5h10.729c0.276,0,0.5,0.224,0.5,0.5
		S257.105,21.834,256.829,21.834z"/>
</g>
<g>
	<line fill="#FFFFFF" x1="31.253" y1="115.343" x2="52.712" y2="115.343"/>
	<path fill="#1D1D1B" d="M52.712,115.843H31.253c-0.276,0-0.5-0.224-0.5-0.5s0.224-0.5,0.5-0.5h21.459c0.276,0,0.5,0.224,0.5,0.5
		S52.988,115.843,52.712,115.843z"/>
</g>
<g>
	<line fill="#FFFFFF" x1="23.329" y1="122.318" x2="40.593" y2="122.318"/>
	<path fill="#1D1D1B" d="M40.593,122.818H23.329c-0.276,0-0.5-0.224-0.5-0.5s0.224-0.5,0.5-0.5h17.264c0.276,0,0.5,0.224,0.5,0.5
		S40.869,122.818,40.593,122.818z"/>
</g>
<g>
	<line fill="#FFFFFF" x1="49.201" y1="122.318" x2="59.93" y2="122.318"/>
	<path fill="#1D1D1B" d="M59.93,122.818H49.201c-0.276,0-0.5-0.224-0.5-0.5s0.224-0.5,0.5-0.5H59.93c0.276,0,0.5,0.224,0.5,0.5
		S60.206,122.818,59.93,122.818z"/>
</g>
<g>
	<line fill="#FFFFFF" x1="19.691" y1="34.931" x2="14.328" y2="34.931"/>
	<path fill="#1D1D1B" d="M19.691,35.431h-5.363c-0.276,0-0.5-0.224-0.5-0.5s0.224-0.5,0.5-0.5h5.363c0.276,0,0.5,0.224,0.5,0.5
		S19.968,35.431,19.691,35.431z"/>
</g>
<g>
	<line fill="#FFFFFF" x1="30.176" y1="30.679" x2="20.445" y2="30.679"/>
	<path fill="#1D1D1B" d="M30.176,31.179h-9.73c-0.276,0-0.5-0.224-0.5-0.5s0.224-0.5,0.5-0.5h9.73c0.276,0,0.5,0.224,0.5,0.5
		S30.452,31.179,30.176,31.179z"/>
</g>
<g>
	<line fill="#FFFFFF" x1="296.565" y1="115.414" x2="280.723" y2="115.414"/>
	<path fill="#1D1D1B" d="M296.565,115.914h-15.843c-0.276,0-0.5-0.224-0.5-0.5s0.224-0.5,0.5-0.5h15.843c0.276,0,0.5,0.224,0.5,0.5
		S296.842,115.914,296.565,115.914z"/>
</g>
<g>
	<line fill="#FFFFFF" x1="314.075" y1="111.16" x2="298.71" y2="111.16"/>
	<path fill="#1D1D1B" d="M314.075,111.66H298.71c-0.276,0-0.5-0.224-0.5-0.5s0.224-0.5,0.5-0.5h15.365c0.276,0,0.5,0.224,0.5,0.5
		S314.352,111.66,314.075,111.66z"/>
</g>
<g>
	<line fill="#FFFFFF" x1="302.486" y1="122.318" x2="292.053" y2="122.318"/>
	<path fill="#1D1D1B" d="M302.486,122.818h-10.434c-0.276,0-0.5-0.224-0.5-0.5s0.224-0.5,0.5-0.5h10.434c0.276,0,0.5,0.224,0.5,0.5
		S302.763,122.818,302.486,122.818z"/>
</g>
<g>
	<line fill="#FFFFFF" x1="112.285" y1="150.312" x2="106.922" y2="150.312"/>
	<path fill="#1D1D1B" d="M112.285,150.812h-5.363c-0.276,0-0.5-0.224-0.5-0.5s0.224-0.5,0.5-0.5h5.363c0.276,0,0.5,0.224,0.5,0.5
		S112.562,150.812,112.285,150.812z"/>
</g>
<g>
	<line fill="#FFFFFF" x1="122.77" y1="146.061" x2="113.039" y2="146.061"/>
	<path fill="#1D1D1B" d="M122.77,146.561h-9.73c-0.276,0-0.5-0.224-0.5-0.5s0.224-0.5,0.5-0.5h9.73c0.276,0,0.5,0.224,0.5,0.5
		S123.046,146.561,122.77,146.561z"/>
</g>
<g>
	<line fill="#FFFFFF" x1="231.418" y1="212.805" x2="226.055" y2="212.805"/>
	<path fill="#1D1D1B" d="M231.418,213.305h-5.363c-0.276,0-0.5-0.224-0.5-0.5s0.224-0.5,0.5-0.5h5.363c0.276,0,0.5,0.224,0.5,0.5
		S231.694,213.305,231.418,213.305z"/>
</g>
<g>
	<line fill="#FFFFFF" x1="241.902" y1="208.553" x2="232.172" y2="208.553"/>
	<path fill="#1D1D1B" d="M241.902,209.053h-9.73c-0.276,0-0.5-0.224-0.5-0.5s0.224-0.5,0.5-0.5h9.73c0.276,0,0.5,0.224,0.5,0.5
		S242.179,209.053,241.902,209.053z"/>
</g>
<g>
	<line fill="#FFFFFF" x1="302.487" y1="21.106" x2="307.851" y2="21.106"/>
	<path fill="#1D1D1B" d="M307.851,21.606h-5.363c-0.276,0-0.5-0.224-0.5-0.5s0.224-0.5,0.5-0.5h5.363c0.276,0,0.5,0.224,0.5,0.5
		S308.127,21.606,307.851,21.606z"/>
</g>
<g>
	<line fill="#FFFFFF" x1="292.003" y1="25.358" x2="301.733" y2="25.358"/>
	<path fill="#1D1D1B" d="M301.733,25.858h-9.73c-0.276,0-0.5-0.224-0.5-0.5s0.224-0.5,0.5-0.5h9.73c0.276,0,0.5,0.224,0.5,0.5
		S302.01,25.858,301.733,25.858z"/>
</g>
<g>
	<g>
		<g>
			<g>
				<g>
					<g>
						<path fill="#4D4D4D" d="M167.824,165.592c0,0-41.546-23.812-41.546-80.436l41.546-15.556V165.592z"/>
					</g>
					<g>
						<path fill="#313131" d="M167.824,165.592c0,0,41.551-23.812,41.551-80.436l-41.551-15.556V165.592z"/>
					</g>
				</g>
				<g>
					<g>
						<path fill="#375972" d="M167.824,165.592c0,0-41.546-23.812-41.546-80.436l41.546-15.556V165.592z"/>
					</g>
					<g>
						<path fill="#24394C" d="M167.824,165.592c0,0,41.551-23.812,41.551-80.436l-41.551-15.556V165.592z"/>
					</g>
				</g>
			</g>
		</g>
	</g>
	<g>
		<polygon fill="#FFFFFF" points="194.672,106.47 190.416,100.169 164.057,117.97 152.511,106.066 147.051,111.357 163.029,127.84 
			163.045,127.828 163.048,127.832 		"/>
	</g>
</g>
<g>
	<circle fill="#F4655F" cx="167.824" cy="35.594" r="18.428"/>
	<path d="M167.824,54.521c-10.437,0-18.928-8.491-18.928-18.928s8.491-18.928,18.928-18.928c10.437,0,18.928,8.491,18.928,18.928
		S178.261,54.521,167.824,54.521z M167.824,17.666c-9.885,0-17.928,8.042-17.928,17.928s8.042,17.928,17.928,17.928
		c9.886,0,17.928-8.042,17.928-17.928S177.71,17.666,167.824,17.666z"/>
</g>
<g>
	<circle fill="#3F6682" cx="274.527" cy="64.884" r="24.513"/>
	<path d="M274.526,89.897c-13.792,0-25.013-11.221-25.013-25.014s11.221-25.014,25.013-25.014c13.793,0,25.014,11.221,25.014,25.014
		S288.319,89.897,274.526,89.897z M274.526,40.87c-13.24,0-24.013,10.772-24.013,24.014s10.772,24.014,24.013,24.014
		c13.241,0,24.014-10.772,24.014-24.014S287.768,40.87,274.526,40.87z"/>
</g>
<g>
	<path fill="#FFFFFF" d="M272.52,94.688c-1.357-0.09-2.715-0.274-4.037-0.546l0.201-0.979c1.277,0.263,2.591,0.44,3.902,0.527
		L272.52,94.688z M276.593,94.685l-0.068-0.998c1.31-0.089,2.622-0.27,3.902-0.535l0.203,0.979
		C279.306,94.406,277.947,94.592,276.593,94.685z M264.553,93.049c-1.279-0.453-2.538-0.999-3.741-1.622l0.461-0.888
		c1.162,0.602,2.378,1.129,3.614,1.567L264.553,93.049z M284.554,93.03l-0.336-0.942c1.233-0.439,2.448-0.969,3.61-1.573
		l0.461,0.888C287.087,92.027,285.83,92.575,284.554,93.03z M257.329,89.31c-1.106-0.781-2.171-1.646-3.163-2.57l0.682-0.731
		c0.959,0.894,1.988,1.729,3.058,2.484L257.329,89.31z M291.766,89.281l-0.578-0.816c1.066-0.755,2.094-1.592,3.053-2.488
		l0.684,0.73C293.932,87.634,292.869,88.5,291.766,89.281z M251.381,83.767c-0.856-1.048-1.649-2.166-2.357-3.323l0.854-0.521
		c0.684,1.118,1.45,2.198,2.277,3.211L251.381,83.767z M297.703,83.729l-0.775-0.632c0.828-1.017,1.593-2.099,2.274-3.217
		l0.854,0.521C299.352,81.556,298.56,82.676,297.703,83.729z M247.143,76.833c-0.542-1.241-1.003-2.531-1.371-3.837l0.963-0.271
		c0.355,1.262,0.801,2.509,1.324,3.708L247.143,76.833z M301.934,76.782l-0.916-0.399c0.521-1.199,0.966-2.449,1.318-3.712
		l0.963,0.269C302.934,74.247,302.475,75.54,301.934,76.782z M244.938,69.006c-0.186-1.339-0.28-2.707-0.282-4.064l1-0.001
		c0.002,1.312,0.094,2.634,0.272,3.929L244.938,69.006z M304.123,68.948l-0.99-0.135c0.176-1.292,0.265-2.615,0.265-3.93v-0.115h1
		v0.115C304.397,66.244,304.306,67.611,304.123,68.948z M245.913,61.01l-0.99-0.133c0.181-1.348,0.455-2.691,0.817-3.993
		l0.963,0.268C246.354,58.41,246.088,59.708,245.913,61.01z M303.118,60.843c-0.184-1.302-0.457-2.598-0.813-3.853l0.963-0.273
		c0.368,1.299,0.651,2.64,0.841,3.987L303.118,60.843z M248.015,53.437l-0.918-0.396c0.537-1.244,1.167-2.462,1.87-3.623
		l0.855,0.519C249.143,51.057,248.534,52.235,248.015,53.437z M300.973,53.285c-0.526-1.199-1.141-2.372-1.825-3.487l0.852-0.523
		c0.709,1.154,1.345,2.368,1.89,3.608L300.973,53.285z M252.091,46.714l-0.777-0.63c0.854-1.053,1.788-2.057,2.776-2.984
		l0.684,0.729C253.819,44.726,252.916,45.696,252.091,46.714z M296.863,46.59c-0.831-1.014-1.739-1.979-2.698-2.869l0.68-0.733
		c0.992,0.921,1.932,1.92,2.792,2.969L296.863,46.59z M257.82,41.336l-0.58-0.815c1.104-0.784,2.271-1.5,3.473-2.128l0.463,0.886
		C260.016,39.885,258.887,40.578,257.82,41.336z M291.104,41.243c-1.071-0.753-2.206-1.439-3.371-2.04l0.459-0.889
		c1.205,0.622,2.378,1.332,3.486,2.11L291.104,41.243z M264.784,37.698l-0.338-0.941c1.275-0.457,2.594-0.83,3.921-1.108
		l0.205,0.979C267.29,36.896,266.016,37.257,264.784,37.698z M284.114,37.643c-1.238-0.436-2.517-0.789-3.799-1.05l0.199-0.979
		c1.327,0.27,2.649,0.635,3.932,1.086L284.114,37.643z M272.474,36.084l-0.07-0.997c1.348-0.095,2.733-0.099,4.072-0.012
		l-0.064,0.998C275.116,35.989,273.775,35.993,272.474,36.084z"/>
</g>
<g>
	<path fill="#FFFFFF" d="M57.643,94.688c-1.356-0.09-2.715-0.274-4.037-0.546l0.201-0.979c1.278,0.263,2.591,0.44,3.902,0.527
		L57.643,94.688z M61.717,94.685l-0.068-0.998c1.309-0.089,2.622-0.27,3.901-0.535l0.203,0.979
		C64.429,94.405,63.071,94.592,61.717,94.685z M49.677,93.049c-1.277-0.453-2.536-0.998-3.741-1.622l0.46-0.888
		c1.164,0.603,2.38,1.13,3.615,1.567L49.677,93.049z M69.677,93.03l-0.336-0.942c1.233-0.439,2.448-0.969,3.61-1.573l0.461,0.888
		C72.21,92.027,70.954,92.575,69.677,93.03z M42.453,89.31c-1.107-0.781-2.171-1.646-3.163-2.57l0.682-0.731
		c0.959,0.894,1.988,1.729,3.058,2.484L42.453,89.31z M76.89,89.281l-0.578-0.816c1.067-0.755,2.094-1.592,3.053-2.488l0.683,0.73
		C79.056,87.633,77.994,88.499,76.89,89.281z M36.505,83.767c-0.858-1.051-1.651-2.168-2.357-3.323l0.854-0.521
		c0.682,1.116,1.448,2.196,2.278,3.211L36.505,83.767z M82.828,83.729l-0.775-0.632c0.828-1.017,1.593-2.099,2.274-3.217L85.18,80.4
		C84.476,81.556,83.684,82.676,82.828,83.729z M32.267,76.833c-0.543-1.243-1.004-2.534-1.372-3.837l0.963-0.271
		c0.354,1.259,0.8,2.507,1.325,3.708L32.267,76.833z M87.058,76.781l-0.917-0.398c0.522-1.203,0.966-2.452,1.319-3.713l0.963,0.27
		C88.058,74.244,87.599,75.537,87.058,76.781z M30.062,69.006c-0.185-1.336-0.279-2.703-0.282-4.064l1-0.002
		c0.003,1.316,0.095,2.638,0.272,3.929L30.062,69.006z M89.248,68.948l-0.991-0.135c0.176-1.292,0.265-2.615,0.265-3.93v-0.115h1
		v0.115C89.521,66.244,89.429,67.611,89.248,68.948z M31.038,61.01l-0.991-0.133c0.18-1.342,0.455-2.686,0.816-3.992l0.964,0.267
		C31.477,58.415,31.211,59.713,31.038,61.01z M88.241,60.843c-0.182-1.299-0.456-2.596-0.812-3.853l0.962-0.273
		c0.369,1.301,0.652,2.643,0.84,3.987L88.241,60.843z M33.139,53.437l-0.918-0.396c0.538-1.244,1.167-2.462,1.87-3.623l0.855,0.519
		C34.266,51.057,33.658,52.235,33.139,53.437z M86.096,53.285c-0.525-1.196-1.139-2.369-1.826-3.487l0.853-0.523
		c0.71,1.157,1.346,2.371,1.889,3.608L86.096,53.285z M37.213,46.714l-0.776-0.63c0.853-1.052,1.787-2.056,2.775-2.984l0.685,0.729
		C38.941,44.727,38.038,45.697,37.213,46.714z M81.987,46.59c-0.831-1.013-1.738-1.979-2.698-2.869l0.681-0.733
		c0.993,0.922,1.932,1.921,2.791,2.969L81.987,46.59z M42.944,41.336l-0.579-0.815c1.104-0.785,2.272-1.5,3.473-2.128l0.463,0.886
		C45.14,39.885,44.011,40.577,42.944,41.336z M76.227,41.243c-1.072-0.753-2.206-1.439-3.371-2.04l0.458-0.889
		c1.206,0.621,2.379,1.331,3.488,2.11L76.227,41.243z M49.907,37.698l-0.337-0.941c1.275-0.457,2.594-0.83,3.921-1.108l0.205,0.979
		C52.415,36.896,51.14,37.257,49.907,37.698z M69.238,37.643c-1.237-0.436-2.515-0.789-3.798-1.05l0.199-0.979
		c1.328,0.27,2.651,0.635,3.931,1.086L69.238,37.643z M57.597,36.084l-0.07-0.997c1.348-0.095,2.732-0.098,4.074-0.012l-0.064,0.998
		C60.24,35.989,58.901,35.994,57.597,36.084z"/>
</g>
<g>
	<path fill="#FFFFFF" d="M272.52,203.037c-1.355-0.09-2.714-0.273-4.037-0.545l0.201-0.98c1.278,0.263,2.592,0.44,3.902,0.527
		L272.52,203.037z M276.593,203.032l-0.068-0.998c1.309-0.089,2.621-0.269,3.902-0.534l0.203,0.979
		C279.305,202.754,277.946,202.94,276.593,203.032z M264.553,201.397c-1.276-0.452-2.535-0.998-3.74-1.622l0.459-0.889
		c1.165,0.604,2.382,1.131,3.615,1.567L264.553,201.397z M284.554,201.378l-0.336-0.941c1.23-0.438,2.445-0.968,3.61-1.573
		l0.461,0.887C287.084,200.377,285.827,200.925,284.554,201.378z M257.329,197.658c-1.106-0.78-2.171-1.645-3.163-2.569l0.682-0.732
		c0.96,0.895,1.988,1.73,3.058,2.485L257.329,197.658z M291.766,197.63l-0.578-0.816c1.069-0.756,2.096-1.594,3.053-2.488
		l0.684,0.73C293.934,195.981,292.871,196.848,291.766,197.63z M251.38,192.115c-0.855-1.048-1.647-2.166-2.356-3.323l0.854-0.521
		c0.685,1.118,1.451,2.199,2.278,3.212L251.38,192.115z M297.703,192.077l-0.775-0.631c0.827-1.017,1.593-2.099,2.274-3.218
		l0.854,0.52C299.351,189.906,298.559,191.026,297.703,192.077z M247.143,185.182c-0.542-1.24-1.003-2.531-1.371-3.837l0.963-0.271
		c0.355,1.262,0.801,2.51,1.324,3.708L247.143,185.182z M301.934,185.13l-0.916-0.398c0.521-1.2,0.966-2.45,1.318-3.714l0.963,0.27
		C302.934,182.595,302.475,183.888,301.934,185.13z M244.938,177.355c-0.186-1.339-0.28-2.707-0.282-4.063l1-0.002
		c0.002,1.312,0.094,2.634,0.272,3.929L244.938,177.355z M304.123,177.297l-0.99-0.135c0.176-1.294,0.265-2.615,0.265-3.93
		l-0.001-0.114h1l0.001,0.102C304.397,174.592,304.306,175.959,304.123,177.297z M245.913,169.359l-0.99-0.133
		c0.181-1.349,0.456-2.691,0.817-3.992l0.963,0.268C246.354,166.759,246.089,168.057,245.913,169.359z M303.118,169.193
		c-0.184-1.302-0.457-2.599-0.813-3.854l0.963-0.273c0.368,1.299,0.651,2.641,0.841,3.988L303.118,169.193z M248.016,161.785
		l-0.918-0.396c0.537-1.243,1.167-2.462,1.87-3.622l0.855,0.518C249.144,159.406,248.535,160.584,248.016,161.785z M300.973,161.634
		c-0.526-1.199-1.141-2.372-1.825-3.486l0.852-0.523c0.709,1.153,1.344,2.367,1.89,3.607L300.973,161.634z M252.091,155.064
		l-0.777-0.631c0.854-1.052,1.788-2.056,2.776-2.983l0.684,0.729C253.818,153.076,252.916,154.047,252.091,155.064z
		 M296.863,154.939c-0.833-1.016-1.741-1.98-2.698-2.87l0.68-0.732c0.991,0.919,1.93,1.918,2.792,2.968L296.863,154.939z
		 M257.82,149.685l-0.58-0.814c1.106-0.786,2.274-1.502,3.473-2.129l0.463,0.887C260.019,148.233,258.889,148.926,257.82,149.685z
		 M291.104,149.592c-1.074-0.755-2.208-1.441-3.37-2.04l0.457-0.889c1.203,0.619,2.377,1.33,3.487,2.11L291.104,149.592z
		 M264.784,146.047l-0.338-0.941c1.273-0.456,2.593-0.829,3.921-1.108l0.205,0.979C267.289,145.245,266.015,145.605,264.784,146.047
		z M284.114,145.991c-1.239-0.436-2.518-0.788-3.799-1.049l0.199-0.98c1.326,0.271,2.648,0.636,3.932,1.086L284.114,145.991z
		 M272.473,144.434l-0.07-0.998c1.341-0.095,2.729-0.1,4.074-0.012l-0.064,0.998C275.112,144.338,273.769,144.342,272.473,144.434z"
		/>
</g>
<g>
	<path fill="#FFFFFF" d="M57.643,203.037c-1.355-0.09-2.713-0.273-4.037-0.545l0.201-0.98c1.279,0.263,2.592,0.44,3.902,0.527
		L57.643,203.037z M61.717,203.032l-0.067-0.998c1.308-0.089,2.62-0.269,3.901-0.534l0.203,0.979
		C64.428,202.754,63.07,202.94,61.717,203.032z M49.677,201.397c-1.274-0.452-2.533-0.997-3.741-1.622l0.46-0.889
		c1.167,0.604,2.383,1.132,3.615,1.567L49.677,201.397z M69.677,201.378l-0.336-0.941c1.231-0.438,2.445-0.968,3.61-1.573
		l0.461,0.887C72.208,200.377,70.951,200.925,69.677,201.378z M42.453,197.658c-1.107-0.78-2.171-1.645-3.163-2.57l0.682-0.73
		c0.959,0.894,1.988,1.729,3.058,2.484L42.453,197.658z M76.89,197.63l-0.578-0.816c1.069-0.757,2.097-1.594,3.052-2.488l0.684,0.73
		C79.058,195.98,77.996,196.847,76.89,197.63z M36.505,192.115c-0.857-1.05-1.65-2.168-2.357-3.323l0.854-0.521
		c0.683,1.116,1.449,2.197,2.278,3.212L36.505,192.115z M82.828,192.077l-0.775-0.631c0.827-1.017,1.592-2.099,2.274-3.218
		l0.854,0.52C84.475,189.906,83.684,191.026,82.828,192.077z M32.267,185.182c-0.543-1.242-1.004-2.533-1.372-3.837l0.963-0.271
		c0.354,1.26,0.8,2.508,1.325,3.708L32.267,185.182z M87.058,185.13l-0.917-0.398c0.522-1.204,0.966-2.453,1.319-3.714l0.963,0.27
		C88.058,182.592,87.599,183.885,87.058,185.13z M30.062,177.355c-0.185-1.336-0.279-2.703-0.282-4.063l1-0.002
		c0.003,1.315,0.095,2.638,0.272,3.929L30.062,177.355z M89.248,177.297l-0.991-0.135c0.176-1.294,0.265-2.615,0.265-3.93v-0.114h1
		v0.114C89.521,174.592,89.429,175.959,89.248,177.297z M31.038,169.359l-0.991-0.133c0.18-1.343,0.455-2.686,0.816-3.992
		l0.964,0.268C31.477,166.764,31.212,168.062,31.038,169.359z M88.241,169.193c-0.182-1.3-0.455-2.597-0.812-3.854l0.962-0.273
		c0.369,1.302,0.652,2.644,0.84,3.988L88.241,169.193z M33.139,161.785l-0.918-0.396c0.538-1.243,1.167-2.462,1.87-3.622
		l0.855,0.518C34.266,159.406,33.658,160.584,33.139,161.785z M86.096,161.634c-0.525-1.196-1.139-2.369-1.826-3.486l0.853-0.523
		c0.71,1.156,1.345,2.37,1.889,3.607L86.096,161.634z M37.214,155.063l-0.776-0.629c0.852-1.052,1.786-2.056,2.775-2.984
		l0.685,0.729C38.941,153.076,38.038,154.047,37.214,155.063z M81.987,154.939c-0.832-1.015-1.74-1.98-2.698-2.87l0.681-0.732
		c0.991,0.92,1.93,1.919,2.791,2.968L81.987,154.939z M42.944,149.685l-0.579-0.814c1.106-0.786,2.274-1.502,3.473-2.129
		l0.463,0.887C45.143,148.233,44.014,148.925,42.944,149.685z M76.227,149.592c-1.074-0.755-2.208-1.441-3.371-2.04l0.458-0.889
		c1.203,0.619,2.376,1.329,3.488,2.11L76.227,149.592z M49.907,146.047l-0.337-0.941c1.274-0.457,2.593-0.829,3.921-1.108
		l0.206,0.979C52.414,145.245,51.139,145.605,49.907,146.047z M69.238,145.991c-1.239-0.435-2.517-0.788-3.799-1.049l0.199-0.98
		c1.327,0.271,2.649,0.636,3.931,1.086L69.238,145.991z M57.597,144.434l-0.07-0.998c1.342-0.094,2.73-0.099,4.074-0.012
		l-0.064,0.998C60.237,144.339,58.896,144.342,57.597,144.434z"/>
</g>
<g>
	<circle fill="#EFE279" cx="59.651" cy="64.884" r="24.513"/>
	<path d="M59.651,89.897c-13.792,0-25.014-11.221-25.014-25.014S45.859,39.87,59.651,39.87c13.792,0,25.013,11.221,25.013,25.014
		S73.443,89.897,59.651,89.897z M59.651,40.87c-13.241,0-24.014,10.772-24.014,24.014S46.41,88.897,59.651,88.897
		c13.241,0,24.013-10.772,24.013-24.014S72.892,40.87,59.651,40.87z"/>
</g>
<g>
	<circle fill="#EFE279" cx="166.354" cy="201.99" r="18.428"/>
	<path d="M166.354,220.918c-10.437,0-18.928-8.491-18.928-18.928s8.491-18.928,18.928-18.928c10.437,0,18.928,8.491,18.928,18.928
		S176.79,220.918,166.354,220.918z M166.354,184.062c-9.885,0-17.928,8.042-17.928,17.928s8.042,17.928,17.928,17.928
		c9.886,0,17.928-8.042,17.928-17.928S176.239,184.062,166.354,184.062z"/>
</g>
<g>
	<path fill="#FFFFFF" d="M166.354,224.736c-1.063,0-2.134-0.074-3.185-0.222l0.139-0.99c1.288,0.181,2.612,0.244,3.9,0.195l0.037,1
		C166.949,224.73,166.652,224.736,166.354,224.736z M171.295,224.198l-0.217-0.977c1.27-0.28,2.521-0.68,3.719-1.186l0.389,0.922
		C173.932,223.487,172.623,223.904,171.295,224.198z M159.193,223.586c-1.291-0.428-2.55-0.976-3.745-1.63l0.48-0.877
		c1.142,0.625,2.346,1.148,3.579,1.558L159.193,223.586z M178.789,221.039l-0.549-0.836c1.091-0.716,2.122-1.53,3.064-2.423
		l0.688,0.727C181.007,219.439,179.929,220.291,178.789,221.039z M152.055,219.681c-1.056-0.854-2.043-1.811-2.932-2.842
		l0.757-0.652c0.851,0.985,1.794,1.899,2.804,2.717L152.055,219.681z M184.695,215.445l-0.807-0.592
		c0.771-1.05,1.451-2.174,2.021-3.342l0.898,0.439C186.213,213.172,185.502,214.348,184.695,215.445z M146.743,213.521
		c-0.691-1.174-1.279-2.415-1.748-3.689l0.938-0.346c0.448,1.219,1.01,2.406,1.67,3.527L146.743,213.521z M188.26,208.133
		l-0.963-0.27c0.35-1.249,0.588-2.54,0.708-3.838l0.996,0.092C188.875,205.475,188.626,206.826,188.26,208.133z M143.94,205.887
		c-0.221-1.277-0.333-2.588-0.333-3.896c0-1.365,0.122-2.733,0.362-4.065l0.984,0.178c-0.23,1.273-0.347,2.582-0.347,3.888
		c0,1.251,0.107,2.505,0.318,3.727L143.94,205.887z M188.02,200.118c-0.11-1.296-0.339-2.589-0.679-3.843l0.965-0.262
		c0.356,1.312,0.595,2.664,0.71,4.021L188.02,200.118z M145.992,194.339l-0.936-0.352c0.479-1.274,1.077-2.512,1.777-3.678
		l0.857,0.514C147.021,191.938,146.45,193.122,145.992,194.339z M185.982,192.618c-0.562-1.175-1.234-2.304-1.995-3.355l0.811-0.586
		c0.796,1.101,1.498,2.281,2.087,3.51L185.982,192.618z M149.99,187.668l-0.752-0.658c0.896-1.022,1.889-1.971,2.954-2.819
		l0.623,0.782C151.796,185.784,150.846,186.69,149.99,187.668z M181.427,186.317c-0.94-0.903-1.965-1.727-3.046-2.446l0.555-0.832
		c1.13,0.752,2.201,1.612,3.185,2.558L181.427,186.317z M156.073,182.823l-0.474-0.881c1.197-0.644,2.461-1.183,3.755-1.601
		l0.308,0.951C158.425,181.692,157.218,182.208,156.073,182.823z M174.95,182.008c-1.197-0.514-2.446-0.922-3.712-1.213l0.225-0.975
		c1.323,0.304,2.63,0.731,3.882,1.27L174.95,182.008z M163.47,180.435l-0.132-0.992c1.347-0.179,2.733-0.24,4.08-0.173l-0.048,0.998
		C166.079,180.208,164.756,180.263,163.47,180.435z"/>
</g>
<g>
	<path fill="#FFFFFF" d="M167.824,58.34c-1.065,0-2.137-0.074-3.185-0.221l0.139-0.99c1.283,0.179,2.606,0.243,3.899,0.195
		l0.039,0.999C168.421,58.334,168.123,58.34,167.824,58.34z M172.766,57.801l-0.217-0.977c1.27-0.281,2.521-0.68,3.719-1.186
		l0.389,0.922C175.402,57.089,174.094,57.507,172.766,57.801z M160.664,57.189c-1.292-0.428-2.552-0.977-3.745-1.631l0.48-0.877
		c1.14,0.625,2.345,1.149,3.579,1.559L160.664,57.189z M180.259,54.642l-0.547-0.837c1.088-0.711,2.118-1.526,3.063-2.421
		l0.688,0.727C182.475,53.046,181.396,53.898,180.259,54.642z M153.526,53.284c-1.056-0.855-2.043-1.811-2.932-2.841l0.757-0.653
		c0.851,0.986,1.794,1.9,2.804,2.717L153.526,53.284z M186.166,49.048l-0.807-0.592c0.772-1.051,1.452-2.176,2.021-3.341
		l0.898,0.438C187.685,46.773,186.973,47.949,186.166,49.048z M148.214,47.125c-0.692-1.174-1.28-2.416-1.748-3.69l0.938-0.345
		c0.447,1.218,1.009,2.404,1.67,3.527L148.214,47.125z M189.73,41.735l-0.963-0.27c0.35-1.25,0.588-2.541,0.708-3.838l0.996,0.093
		C190.346,39.077,190.097,40.428,189.73,41.735z M145.411,39.49c-0.221-1.277-0.333-2.588-0.333-3.896
		c0-1.365,0.122-2.733,0.362-4.066l0.984,0.178c-0.23,1.274-0.347,2.583-0.347,3.889c0,1.251,0.107,2.505,0.318,3.727L145.411,39.49
		z M189.49,33.723c-0.11-1.297-0.339-2.59-0.679-3.843l0.965-0.262c0.356,1.311,0.595,2.664,0.71,4.021L189.49,33.723z
		 M147.462,27.942l-0.936-0.352c0.478-1.272,1.076-2.51,1.777-3.679l0.857,0.515C148.491,25.544,147.92,26.727,147.462,27.942z
		 M187.453,26.222c-0.562-1.174-1.233-2.303-1.995-3.355l0.811-0.586c0.796,1.101,1.498,2.281,2.087,3.509L187.453,26.222z
		 M151.46,21.272l-0.752-0.659c0.896-1.023,1.89-1.971,2.954-2.819l0.623,0.782C153.268,19.387,152.317,20.293,151.46,21.272z
		 M182.897,19.919c-0.939-0.903-1.965-1.726-3.046-2.445l0.555-0.832c1.13,0.752,2.201,1.612,3.185,2.556L182.897,19.919z
		 M157.544,16.427l-0.474-0.881c1.2-0.645,2.463-1.183,3.755-1.601l0.308,0.951C159.898,15.295,158.69,15.811,157.544,16.427z
		 M176.42,15.613c-1.194-0.515-2.442-0.923-3.711-1.214l0.225-0.975c1.326,0.305,2.633,0.732,3.883,1.271L176.42,15.613z
		 M164.94,14.037l-0.132-0.991c1.343-0.178,2.729-0.237,4.079-0.174l-0.047,0.999C167.55,13.812,166.224,13.867,164.94,14.037z"/>
</g>
<g>
	<circle fill="#3F6682" cx="59.651" cy="172.701" r="24.513"/>
	<path d="M59.651,197.715c-13.792,0-25.014-11.221-25.014-25.014s11.221-25.014,25.014-25.014c13.792,0,25.013,11.221,25.013,25.014
		S73.443,197.715,59.651,197.715z M59.651,148.688c-13.241,0-24.014,10.772-24.014,24.014s10.772,24.014,24.014,24.014
		c13.241,0,24.013-10.772,24.013-24.014S72.892,148.688,59.651,148.688z"/>
</g>
<g>
	<circle fill="#F4655F" cx="274.527" cy="172.701" r="24.513"/>
	<path d="M274.526,197.715c-13.792,0-25.013-11.221-25.013-25.014s11.221-25.014,25.013-25.014
		c13.793,0,25.014,11.221,25.014,25.014S288.319,197.715,274.526,197.715z M274.526,148.688c-13.24,0-24.013,10.772-24.013,24.014
		s10.772,24.014,24.013,24.014c13.241,0,24.014-10.772,24.014-24.014S287.768,148.688,274.526,148.688z"/>
</g>
<g>
	<g>
		<path fill="#FFFFFF" d="M274.526,50.084c-8.505,0-15.425,6.92-15.425,15.425c0,8.504,6.92,15.424,15.425,15.424
			s15.424-6.92,15.424-15.424C289.95,57.004,283.031,50.084,274.526,50.084z M275.988,73.479v2.46h-1.78v-2.467
			c-3.806-0.304-6.65-2.497-6.65-4.407h1.78c0,0.792,2.236,2.666,5.76,2.666c2.833,0,5.762-1.355,5.762-3.627
			c0-1.889-2.479-2.012-2.586-2.017h-6.131c-2.627,0-4.072-1.338-4.072-3.769c0-1.571,1.313-4.461,6.138-4.78v-2.46h1.78v2.46
			c4.584,0.318,5.568,3.045,5.608,3.169l-1.679,0.589c-0.031-0.083-0.824-2.011-4.82-2.011c-4.15,0-5.248,1.984-5.248,3.033
			c0,1.033,0.278,1.988,2.293,1.988h6.168c1.521,0.062,4.329,0.936,4.329,3.797C282.64,70.562,280.315,73.163,275.988,73.479z"/>
	</g>
	<g>
		<path fill="#231916" d="M274.526,48.305c-9.502,0-17.204,7.702-17.204,17.204c0,9.501,7.702,17.204,17.204,17.204
			c9.501,0,17.204-7.703,17.204-17.204C291.73,56.007,284.027,48.305,274.526,48.305z M274.526,80.933
			c-8.505,0-15.425-6.92-15.425-15.424c0-8.505,6.92-15.425,15.425-15.425s15.424,6.92,15.424,15.425
			C289.95,74.013,283.031,80.933,274.526,80.933z"/>
	</g>
	<g>
		<path fill="#231916" d="M278.311,64.307h-6.168c-2.015,0-2.293-0.955-2.293-1.988c0-1.049,1.098-3.033,5.248-3.033
			c3.996,0,4.789,1.928,4.82,2.011l1.679-0.589c-0.04-0.124-1.024-2.851-5.608-3.169v0.86h-1.78v-0.86
			c-4.824,0.319-6.138,3.209-6.138,4.78c0,2.431,1.445,3.769,4.072,3.769h6.131c0.106,0.005,2.586,0.128,2.586,2.017
			c0,2.271-2.929,3.627-5.762,3.627c-3.523,0-5.76-1.874-5.76-2.666h-1.78c0,1.91,2.845,4.104,6.65,4.407v-0.854h1.78v0.86
			c4.327-0.315,6.651-2.917,6.651-5.375C282.64,65.242,279.832,64.369,278.311,64.307z"/>
	</g>
	<g>
		<path fill="#231916" d="M274.208,73.472v2.467h1.78v-2.46c-0.288,0.021-0.585,0.031-0.891,0.031
			C274.796,73.51,274.5,73.495,274.208,73.472z"/>
	</g>
	<g>
		<path fill="#231916" d="M274.208,72.618v0.854c0.292,0.023,0.588,0.038,0.89,0.038c0.306,0,0.603-0.011,0.891-0.031v-0.86H274.208
			z"/>
	</g>
	<g>
		<path fill="#231916" d="M275.988,57.538v-2.46h-1.78v2.46c0.286-0.019,0.579-0.032,0.89-0.032
			C275.41,57.506,275.704,57.52,275.988,57.538z"/>
	</g>
	<g>
		<path fill="#231916" d="M275.988,58.398v-0.86c-0.284-0.019-0.578-0.032-0.891-0.032c-0.311,0-0.604,0.014-0.89,0.032v0.86
			H275.988z"/>
	</g>
</g>
<g>
	<g>
		<path fill="#FFFFFF" d="M59.65,178.34c7.534,0,12.16-1.361,12.16-2.336V171.4c-3.09,1.668-9.714,1.832-12.16,1.832
			c-2.445,0-9.071-0.164-12.16-1.834v4.605h0.001C47.491,176.979,52.117,178.34,59.65,178.34z"/>
	</g>
	<g>
		<path fill="#FFFFFF" d="M59.65,171.604c7.534,0,12.16-1.359,12.16-2.336v-4.863c-3.407,1.621-11.067,1.682-12.16,1.682
			c-1.092,0-8.754-0.061-12.16-1.682v4.863h0.001C47.491,170.244,52.117,171.604,59.65,171.604z"/>
	</g>
	<g>
		<path fill="#FFFFFF" d="M71.771,162.551c-0.637-0.723-4.977-1.906-12.121-1.906c-7.144,0-11.482,1.184-12.119,1.906
			c0.637,0.723,4.976,1.906,12.119,1.906C66.795,164.457,71.135,163.273,71.771,162.551z"/>
	</g>
	<g>
		<path fill="#FFFFFF" d="M59.65,179.969c-2.445,0-9.071-0.164-12.16-1.834v4.604h0.01c0,0.977,4.625,2.338,12.159,2.338
			c7.457,0,12.059-1.332,12.151-2.307v-4.633C68.721,179.805,62.097,179.969,59.65,179.969z"/>
	</g>
	<g>
		<path fill="#231916" d="M47.49,164.404c3.406,1.621,11.068,1.682,12.16,1.682c1.093,0,8.753-0.061,12.16-1.682v-1.854h1.629v0.01
			c0-0.004,0.001-0.006,0.001-0.01c0-3.436-12.378-3.535-13.79-3.535c-1.41,0-13.788,0.1-13.788,3.535h1.628V164.404z
			 M59.65,160.645c7.145,0,11.484,1.184,12.121,1.906c-0.637,0.723-4.977,1.906-12.121,1.906c-7.144,0-11.482-1.184-12.119-1.906
			C48.168,161.828,52.507,160.645,59.65,160.645z"/>
	</g>
	<g>
		<path fill="#231916" d="M71.811,164.404v4.863h1.629v-6.707C73.435,163.332,72.802,163.934,71.811,164.404z"/>
	</g>
	<g>
		<polygon fill="#231916" points="73.439,182.836 73.439,182.824 73.438,182.836 		"/>
	</g>
	<g>
		<path fill="#231916" d="M71.811,178.137v4.633c0.001-0.01,0.009-0.021,0.009-0.031h1.62v-6.734
			C73.439,176.902,72.808,177.598,71.811,178.137z"/>
	</g>
	<g>
		<path fill="#231916" d="M71.811,171.4v4.604h1.629v-6.736C73.439,170.166,72.808,170.861,71.811,171.4z"/>
	</g>
	<g>
		<path fill="#231916" d="M71.811,162.551v1.854c0.991-0.471,1.624-1.072,1.629-1.844v-0.01H71.811z"/>
	</g>
	<g>
		<path fill="#231916" d="M47.49,182.738v-4.604c-0.996-0.539-1.627-1.232-1.627-2.131h1.627v-4.605
			c-0.996-0.539-1.627-1.232-1.627-2.131h1.627v-4.863c-0.993-0.473-1.628-1.078-1.628-1.854v20.285h0.018
			c-0.002-0.033-0.009-0.064-0.009-0.098H47.49z"/>
	</g>
	<g>
		<path fill="#231916" d="M47.49,164.404v-1.854h-1.628C45.862,163.326,46.497,163.932,47.49,164.404z"/>
	</g>
	<g>
		<path fill="#231916" d="M71.811,171.4v-2.133c0,0.977-4.626,2.336-12.16,2.336c-7.533,0-12.159-1.359-12.159-2.336H47.49v2.131
			c3.089,1.67,9.715,1.834,12.16,1.834C62.097,173.232,68.721,173.068,71.811,171.4z"/>
	</g>
	<g>
		<path fill="#231916" d="M71.811,171.4c0.997-0.539,1.629-1.234,1.629-2.133h-1.629V171.4z"/>
	</g>
	<g>
		<path fill="#231916" d="M45.863,169.268c0,0.898,0.631,1.592,1.627,2.131v-2.131H45.863z"/>
	</g>
	<g>
		<path fill="#231916" d="M71.811,178.137v-2.133c0,0.975-4.626,2.336-12.16,2.336c-7.533,0-12.159-1.361-12.159-2.336H47.49v2.131
			c3.089,1.67,9.715,1.834,12.16,1.834C62.097,179.969,68.721,179.805,71.811,178.137z"/>
	</g>
	<g>
		<path fill="#231916" d="M71.811,178.137c0.997-0.539,1.629-1.234,1.629-2.133h-1.629V178.137z"/>
	</g>
	<g>
		<path fill="#231916" d="M45.863,176.004c0,0.898,0.631,1.592,1.627,2.131v-2.131H45.863z"/>
	</g>
	<g>
		<path fill="#231916" d="M73.439,182.738v0.086c0.001-0.029,0.008-0.057,0.008-0.086H73.439z"/>
	</g>
	<g>
		<path fill="#231916" d="M71.811,182.77c-0.093,0.975-4.694,2.307-12.151,2.307c-7.534,0-12.159-1.361-12.159-2.338h-0.01v0.098
			h-1.61c0.189,3.586,10.573,3.867,13.779,3.867c3.205,0,13.59-0.281,13.779-3.867h-1.628V182.77z"/>
	</g>
	<g>
		<path fill="#231916" d="M71.819,182.738c0,0.01-0.008,0.021-0.009,0.031v0.066h1.628c0-0.004,0.001-0.008,0.001-0.012v-0.086
			H71.819z"/>
	</g>
	<g>
		<path fill="#231916" d="M47.49,182.738h-1.619c0,0.033,0.007,0.064,0.009,0.098h1.61V182.738z"/>
	</g>
</g>
<g>
	<g>
		<path fill="#FFFFFF" d="M60.859,64.884c0-2.533,2.062-4.596,4.595-4.596H71.5v-6.521H47.801v22.234H71.5v-6.522h-6.046
			C62.921,69.479,60.859,67.417,60.859,64.884z"/>
	</g>
	<g>
		<path fill="#FFFFFF" d="M62.311,64.884c0,1.733,1.41,3.144,3.144,3.144H71.5v-6.288h-6.046
			C63.721,61.739,62.311,63.15,62.311,64.884z M68.356,65.609h-2.902v-1.451h2.902V65.609z"/>
	</g>
	<g>
		<path fill="#231916" d="M72.951,52.315H46.35v25.137h26.602V52.315z M72.226,61.739H71.5v6.288h0.726v1.451H71.5v6.522H47.801
			V53.767H71.5v6.521h0.726V61.739z"/>
	</g>
	<g>
		<path fill="#231916" d="M65.454,60.288c-2.533,0-4.595,2.062-4.595,4.596s2.062,4.595,4.595,4.595H71.5v-1.451h-6.046
			c-1.733,0-3.144-1.41-3.144-3.144s1.41-3.145,3.144-3.145H71.5v-1.451H65.454z"/>
	</g>
	<g>
		<rect x="71.5" y="60.288" fill="#231916" width="0.726" height="1.451"/>
	</g>
	<g>
		<rect x="71.5" y="68.027" fill="#231916" width="0.726" height="1.451"/>
	</g>
	<g>
		<rect x="65.454" y="64.158" fill="#231916" width="2.902" height="1.451"/>
	</g>
</g>
<g>
	<g>
		<path fill="#FFFFFF" d="M284.724,184.527v-11.41c-0.276,0.045-0.558,0.074-0.847,0.074c-1.98,0-3.719-1.064-4.675-2.648
			c-0.955,1.584-2.693,2.648-4.675,2.648s-3.719-1.064-4.675-2.648c-0.954,1.584-2.693,2.648-4.675,2.648
			c-0.289,0-0.57-0.029-0.847-0.074v11.41H284.724z"/>
	</g>
	<g>
		<path fill="#FFFFFF" d="M264.485,159.986l-3.2,7.895c0.076,2.082,1.794,3.752,3.893,3.752c2.148,0,3.896-1.748,3.896-3.896h1.559
			c0,2.148,1.747,3.896,3.896,3.896s3.896-1.748,3.896-3.896h1.557c0,2.148,1.749,3.896,3.896,3.896c2.099,0,3.816-1.67,3.894-3.75
			l-3.246-7.896H264.485z"/>
	</g>
	<g>
		<path fill="#231916" d="M264.331,173.117c-0.552-0.086-1.075-0.254-1.559-0.492v11.902h1.559V173.117z"/>
	</g>
	<g>
		<path fill="#231916" d="M284.724,184.527h1.559v-11.902c-0.483,0.238-1.007,0.406-1.559,0.492V184.527z"/>
	</g>
	<g>
		<polygon fill="#231916" points="284.724,184.787 284.724,184.527 264.331,184.527 264.331,184.787 262.772,184.787 
			262.772,184.527 260.503,184.527 260.503,186.084 288.553,186.084 288.553,184.527 286.282,184.527 286.282,184.787 		"/>
	</g>
	<g>
		<rect x="262.772" y="184.527" fill="#231916" width="1.559" height="0.26"/>
	</g>
	<g>
		<rect x="284.724" y="184.527" fill="#231916" width="1.559" height="0.26"/>
	</g>
	<g>
		<path fill="#231916" d="M263.435,158.428l-3.711,9.156v0.152c0,2.143,1.246,3.996,3.049,4.889v-0.213h1.559v0.705
			c0.276,0.045,0.558,0.074,0.847,0.074c1.981,0,3.721-1.064,4.675-2.648c0.956,1.584,2.693,2.648,4.675,2.648
			s3.72-1.064,4.675-2.648c0.956,1.584,2.694,2.648,4.675,2.648c0.289,0,0.57-0.029,0.847-0.074v-0.705h1.559v0.213
			c1.804-0.893,3.049-2.746,3.049-4.889v-0.154l-3.763-9.154H263.435z M283.877,171.633c-2.147,0-3.896-1.748-3.896-3.896h-1.557
			c0,2.148-1.748,3.896-3.896,3.896s-3.896-1.748-3.896-3.896h-1.559c0,2.148-1.747,3.896-3.896,3.896
			c-2.099,0-3.816-1.67-3.893-3.752l3.2-7.895h20.039l3.246,7.896C287.693,169.963,285.976,171.633,283.877,171.633z"/>
	</g>
	<g>
		<path fill="#231916" d="M264.331,172.412h-1.559v0.213c0.483,0.238,1.007,0.406,1.559,0.492V172.412z"/>
	</g>
	<g>
		<path fill="#231916" d="M284.724,172.412v0.705c0.552-0.086,1.075-0.254,1.559-0.492v-0.213H284.724z"/>
	</g>
</g>
<g>
	<g>
		<polygon fill="#FFFFFF" points="172.329,32.805 172.329,29.035 163.658,29.035 163.658,32.805 162.432,32.805 162.432,29.035 
			159.47,29.035 159.47,43.741 176.516,43.741 176.516,29.035 173.555,29.035 173.555,32.805 		"/>
	</g>
	<g>
		<path fill="#FFFFFF" d="M172.329,26.898c0-1.761-1.433-3.193-3.194-3.193h-2.283c-1.762,0-3.193,1.433-3.193,3.193v0.91h8.671
			V26.898z"/>
	</g>
	<g>
		<polygon fill="#231916" points="173.555,29.035 176.516,29.035 176.516,43.741 159.47,43.741 159.47,29.035 162.432,29.035 
			162.432,27.809 158.243,27.809 158.243,44.969 177.743,44.969 177.743,27.809 173.555,27.809 		"/>
	</g>
	<g>
		<rect x="163.658" y="27.809" fill="#231916" width="8.671" height="1.227"/>
	</g>
	<g>
		<rect x="162.432" y="29.035" fill="#231916" width="1.227" height="3.77"/>
	</g>
	<g>
		<rect x="172.329" y="29.035" fill="#231916" width="1.226" height="3.77"/>
	</g>
	<g>
		<path fill="#231916" d="M163.658,26.898c0-1.761,1.432-3.193,3.193-3.193h2.283c1.762,0,3.194,1.433,3.194,3.193v0.91h1.226v-0.91
			c0-2.437-1.982-4.42-4.42-4.42h-2.283c-2.438,0-4.42,1.983-4.42,4.42v0.91h1.227V26.898z"/>
	</g>
	<g>
		<rect x="172.329" y="27.809" fill="#231916" width="1.226" height="1.227"/>
	</g>
	<g>
		<rect x="162.432" y="27.809" fill="#231916" width="1.227" height="1.227"/>
	</g>
</g>
<g>
	<g>
		<polygon fill="#FFFFFF" points="166.354,198.734 167.982,199.34 167.982,193.301 164.725,193.301 164.725,199.34 		"/>
	</g>
	<g>
		<polygon fill="#FFFFFF" points="169.166,201.039 166.354,199.996 163.541,201.039 163.541,193.301 157.09,193.301 157.09,210.68 
			175.617,210.68 175.617,193.301 169.166,193.301 		"/>
	</g>
	<g>
		<path fill="#231916" d="M176.8,192.117h-20.893v19.744H176.8V192.117z M175.617,210.68H157.09v-17.379h6.451v-0.592h1.184v0.592
			h3.258v-0.592h1.184v0.592h6.451V210.68z"/>
	</g>
	<g>
		<polygon fill="#231916" points="166.354,199.996 169.166,201.039 169.166,193.301 167.982,193.301 167.982,199.34 
			166.354,198.734 164.725,199.34 164.725,193.301 163.541,193.301 163.541,201.039 		"/>
	</g>
	<g>
		<rect x="167.982" y="192.709" fill="#231916" width="1.184" height="0.592"/>
	</g>
	<g>
		<rect x="163.541" y="192.709" fill="#231916" width="1.184" height="0.592"/>
	</g>
</g>
<g>
	<line fill="#FFFFFF" x1="114.846" y1="17.211" x2="93.388" y2="17.211"/>
	<path fill="#1D1D1B" d="M114.846,17.711H93.388c-0.276,0-0.5-0.224-0.5-0.5s0.224-0.5,0.5-0.5h21.458c0.276,0,0.5,0.224,0.5,0.5
		S115.122,17.711,114.846,17.711z"/>
</g>
<g>
	<line fill="#FFFFFF" x1="110.072" y1="11.941" x2="88.612" y2="11.941"/>
	<path fill="#1D1D1B" d="M110.072,12.441h-21.46c-0.276,0-0.5-0.224-0.5-0.5s0.224-0.5,0.5-0.5h21.46c0.276,0,0.5,0.224,0.5,0.5
		S110.349,12.441,110.072,12.441z"/>
</g>
<g>
	<line fill="#FFFFFF" x1="97.952" y1="21.896" x2="76.494" y2="21.896"/>
	<path fill="#1D1D1B" d="M97.952,22.396H76.494c-0.276,0-0.5-0.224-0.5-0.5s0.224-0.5,0.5-0.5h21.458c0.276,0,0.5,0.224,0.5,0.5
		S98.229,22.396,97.952,22.396z"/>
</g>
<g>
	<line fill="#FFFFFF" x1="91.172" y1="17.211" x2="85.339" y2="17.211"/>
	<path fill="#1D1D1B" d="M91.172,17.711h-5.833c-0.276,0-0.5-0.224-0.5-0.5s0.224-0.5,0.5-0.5h5.833c0.276,0,0.5,0.224,0.5,0.5
		S91.448,17.711,91.172,17.711z"/>
</g>
<g>
	<line fill="#FFFFFF" x1="78.268" y1="11.941" x2="66.955" y2="11.941"/>
	<path fill="#1D1D1B" d="M78.268,12.441H66.955c-0.276,0-0.5-0.224-0.5-0.5s0.224-0.5,0.5-0.5h11.312c0.276,0,0.5,0.224,0.5,0.5
		S78.544,12.441,78.268,12.441z"/>
</g>
<g>
	<line fill="#FFFFFF" x1="253.62" y1="144.154" x2="232.162" y2="144.154"/>
	<path fill="#1D1D1B" d="M253.62,144.654h-21.458c-0.276,0-0.5-0.224-0.5-0.5s0.224-0.5,0.5-0.5h21.458c0.276,0,0.5,0.224,0.5,0.5
		S253.896,144.654,253.62,144.654z"/>
</g>
<g>
	<line fill="#FFFFFF" x1="248.847" y1="138.885" x2="227.387" y2="138.885"/>
	<path fill="#1D1D1B" d="M248.847,139.385h-21.46c-0.276,0-0.5-0.224-0.5-0.5s0.224-0.5,0.5-0.5h21.46c0.276,0,0.5,0.224,0.5,0.5
		S249.123,139.385,248.847,139.385z"/>
</g>
<g>
	<line fill="#FFFFFF" x1="236.727" y1="148.84" x2="215.269" y2="148.84"/>
	<path fill="#1D1D1B" d="M236.727,149.34h-21.458c-0.276,0-0.5-0.224-0.5-0.5s0.224-0.5,0.5-0.5h21.458c0.276,0,0.5,0.224,0.5,0.5
		S237.003,149.34,236.727,149.34z"/>
</g>
<g>
	<line fill="#FFFFFF" x1="229.946" y1="144.154" x2="224.113" y2="144.154"/>
	<path fill="#1D1D1B" d="M229.946,144.654h-5.833c-0.276,0-0.5-0.224-0.5-0.5s0.224-0.5,0.5-0.5h5.833c0.276,0,0.5,0.224,0.5,0.5
		S230.223,144.654,229.946,144.654z"/>
</g>
<g>
	<line fill="#FFFFFF" x1="217.042" y1="138.885" x2="205.729" y2="138.885"/>
	<path fill="#1D1D1B" d="M217.042,139.385h-11.312c-0.276,0-0.5-0.224-0.5-0.5s0.224-0.5,0.5-0.5h11.312c0.276,0,0.5,0.224,0.5,0.5
		S217.318,139.385,217.042,139.385z"/>
</g>
<g>
	<line fill="#FFFFFF" x1="114.331" y1="216.398" x2="92.873" y2="216.398"/>
	<path fill="#1D1D1B" d="M114.331,216.898H92.873c-0.276,0-0.5-0.224-0.5-0.5s0.224-0.5,0.5-0.5h21.458c0.276,0,0.5,0.224,0.5,0.5
		S114.607,216.898,114.331,216.898z"/>
</g>
<g>
	<line fill="#FFFFFF" x1="109.558" y1="211.129" x2="88.098" y2="211.129"/>
	<path fill="#1D1D1B" d="M109.558,211.629h-21.46c-0.276,0-0.5-0.224-0.5-0.5s0.224-0.5,0.5-0.5h21.46c0.276,0,0.5,0.224,0.5,0.5
		S109.834,211.629,109.558,211.629z"/>
</g>
<g>
	<line fill="#FFFFFF" x1="97.438" y1="221.084" x2="75.979" y2="221.084"/>
	<path fill="#1D1D1B" d="M97.438,221.584H75.979c-0.276,0-0.5-0.224-0.5-0.5s0.224-0.5,0.5-0.5h21.458c0.276,0,0.5,0.224,0.5,0.5
		S97.714,221.584,97.438,221.584z"/>
</g>
<g>
	<line fill="#FFFFFF" x1="90.657" y1="216.398" x2="84.824" y2="216.398"/>
	<path fill="#1D1D1B" d="M90.657,216.898h-5.833c-0.276,0-0.5-0.224-0.5-0.5s0.224-0.5,0.5-0.5h5.833c0.276,0,0.5,0.224,0.5,0.5
		S90.934,216.898,90.657,216.898z"/>
</g>
<g>
	<line fill="#FFFFFF" x1="77.753" y1="211.129" x2="66.44" y2="211.129"/>
	<path fill="#1D1D1B" d="M77.753,211.629H66.44c-0.276,0-0.5-0.224-0.5-0.5s0.224-0.5,0.5-0.5h11.312c0.276,0,0.5,0.224,0.5,0.5
		S78.029,211.629,77.753,211.629z"/>
</g>
<g>
	<circle fill="#FFFFFF" cx="87.301" cy="117.971" r="10.127"/>
</g>
<g>
	<path fill="#375972" d="M87.301,124.463c3.645,0,6.598-2.953,6.598-6.598c0-3.646-2.953-6.598-6.598-6.598
		c-3.646,0-6.598,2.951-6.598,6.598C80.703,121.51,83.655,124.463,87.301,124.463z M82.755,116.72h3.081
		c0.177,0,0.317-0.145,0.317-0.318v-3.082c0-0.176,0.142-0.316,0.317-0.316h1.659c0.175,0,0.315,0.141,0.315,0.316v3.082
		c0,0.174,0.144,0.318,0.316,0.318h3.082c0.174,0,0.317,0.139,0.317,0.314v1.66c0,0.174-0.144,0.317-0.317,0.317h-3.082
		c-0.173,0-0.316,0.141-0.316,0.314v3.084c0,0.174-0.141,0.314-0.315,0.314h-1.659c-0.176,0-0.317-0.141-0.317-0.314v-3.084
		c0-0.174-0.141-0.314-0.317-0.314h-3.081c-0.174,0-0.315-0.143-0.315-0.317v-1.66C82.439,116.859,82.581,116.72,82.755,116.72z"/>
</g>
<g>
	<circle fill="#FFFFFF" cx="116.151" cy="55.079" r="10.127"/>
</g>
<g>
	<path fill="#375972" d="M116.151,61.569c3.645,0,6.598-2.953,6.598-6.598c0-3.646-2.953-6.598-6.598-6.598
		c-3.646,0-6.598,2.952-6.598,6.598C109.554,58.616,112.506,61.569,116.151,61.569z M111.605,53.827h3.081
		c0.177,0,0.317-0.144,0.317-0.317v-3.083c0-0.175,0.142-0.315,0.317-0.315h1.659c0.175,0,0.315,0.141,0.315,0.315v3.083
		c0,0.174,0.144,0.317,0.316,0.317h3.082c0.174,0,0.317,0.14,0.317,0.314v1.66c0,0.174-0.144,0.316-0.317,0.316h-3.082
		c-0.173,0-0.316,0.142-0.316,0.314v3.084c0,0.174-0.141,0.315-0.315,0.315h-1.659c-0.176,0-0.317-0.142-0.317-0.315v-3.084
		c0-0.173-0.141-0.314-0.317-0.314h-3.081c-0.174,0-0.315-0.143-0.315-0.316v-1.66C111.29,53.967,111.432,53.827,111.605,53.827z"/>
</g>
<g>
	<circle fill="#FFFFFF" cx="116.904" cy="176.004" r="10.127"/>
</g>
<g>
	<path fill="#375972" d="M116.904,182.494c3.645,0,6.598-2.953,6.598-6.598s-2.953-6.598-6.598-6.598
		c-3.646,0-6.598,2.953-6.598,6.598S113.259,182.494,116.904,182.494z M112.358,174.752h3.081c0.177,0,0.317-0.143,0.317-0.316
		v-3.084c0-0.174,0.142-0.314,0.317-0.314h1.659c0.175,0,0.315,0.141,0.315,0.314v3.084c0,0.174,0.144,0.316,0.316,0.316h3.082
		c0.174,0,0.317,0.141,0.317,0.314v1.66c0,0.174-0.144,0.316-0.317,0.316h-3.082c-0.173,0-0.316,0.143-0.316,0.314v3.084
		c0,0.174-0.141,0.316-0.315,0.316h-1.659c-0.176,0-0.317-0.143-0.317-0.316v-3.084c0-0.172-0.141-0.314-0.317-0.314h-3.081
		c-0.174,0-0.315-0.143-0.315-0.316v-1.66C112.043,174.893,112.185,174.752,112.358,174.752z"/>
</g>
<g>
	<path fill="#FFFFFF" d="M237.127,116.962c-0.308,5.561,3.969,10.313,9.553,10.622c5.586,0.305,10.361-3.951,10.67-9.51
		c0.308-5.561-3.969-10.312-9.554-10.619S237.436,111.404,237.127,116.962z"/>
</g>
<g>
	<path fill="#375972" d="M253.836,117.412c0-3.629-2.952-6.566-6.598-6.566c-3.645,0-6.598,2.938-6.598,6.566
		c0,3.627,2.953,6.567,6.598,6.567C250.884,123.979,253.836,121.039,253.836,117.412z M252.1,116.585v1.652
		c0,0.174-0.142,0.314-0.315,0.314h-3.081c-0.177,0-0.317,0.143-0.317,0.314v3.069c0,0.174-0.142,0.314-0.317,0.314h-1.659
		c-0.175,0-0.315-0.141-0.315-0.314v-3.069c0-0.172-0.144-0.314-0.316-0.314h-3.082c-0.174,0-0.317-0.141-0.317-0.314v-1.652
		c0-0.174,0.144-0.312,0.317-0.312h3.082c0.173,0,0.316-0.143,0.316-0.316v-3.068c0-0.174,0.141-0.314,0.315-0.314h1.659
		c0.176,0,0.317,0.141,0.317,0.314v3.068c0,0.174,0.141,0.316,0.317,0.316h3.081C251.958,116.273,252.1,116.412,252.1,116.585z"/>
</g>
<g>
	<path fill="#FFFFFF" d="M208.276,54.363c-0.308,5.561,3.969,10.313,9.553,10.621c5.586,0.306,10.361-3.951,10.67-9.51
		c0.308-5.56-3.969-10.312-9.554-10.62C213.36,44.55,208.585,48.805,208.276,54.363z"/>
</g>
<g>
	<path fill="#375972" d="M224.985,54.812c0-3.628-2.952-6.566-6.598-6.566c-3.645,0-6.598,2.938-6.598,6.566
		s2.953,6.567,6.598,6.567C222.033,61.38,224.985,58.44,224.985,54.812z M223.249,53.986v1.652c0,0.174-0.142,0.315-0.315,0.315
		h-3.081c-0.177,0-0.317,0.141-0.317,0.313v3.069c0,0.173-0.142,0.313-0.317,0.313h-1.659c-0.175,0-0.315-0.141-0.315-0.313v-3.069
		c0-0.173-0.144-0.313-0.316-0.313h-3.082c-0.174,0-0.317-0.142-0.317-0.315v-1.652c0-0.174,0.144-0.312,0.317-0.312h3.082
		c0.173,0,0.316-0.143,0.316-0.316v-3.068c0-0.174,0.141-0.313,0.315-0.313h1.659c0.176,0,0.317,0.14,0.317,0.313v3.068
		c0,0.174,0.141,0.316,0.317,0.316h3.081C223.107,53.674,223.249,53.812,223.249,53.986z"/>
</g>
<g>
	<path fill="#FFFFFF" d="M207.523,174.725c-0.308,5.561,3.969,10.312,9.553,10.621c5.586,0.305,10.361-3.951,10.67-9.51
		c0.308-5.561-3.969-10.312-9.554-10.621C212.607,164.91,207.832,169.166,207.523,174.725z"/>
</g>
<g>
	<path fill="#375972" d="M224.232,175.174c0-3.629-2.952-6.566-6.598-6.566c-3.645,0-6.598,2.938-6.598,6.566
		c0,3.627,2.953,6.566,6.598,6.566C221.28,181.74,224.232,178.801,224.232,175.174z M222.496,174.348V176
		c0,0.174-0.142,0.314-0.315,0.314H219.1c-0.177,0-0.317,0.141-0.317,0.314v3.068c0,0.174-0.142,0.314-0.317,0.314h-1.659
		c-0.175,0-0.315-0.141-0.315-0.314v-3.068c0-0.174-0.144-0.314-0.316-0.314h-3.082c-0.174,0-0.317-0.141-0.317-0.314v-1.652
		c0-0.174,0.144-0.312,0.317-0.312h3.082c0.173,0,0.316-0.143,0.316-0.316v-3.068c0-0.174,0.141-0.314,0.315-0.314h1.659
		c0.176,0,0.317,0.141,0.317,0.314v3.068c0,0.174,0.141,0.316,0.317,0.316h3.081C222.354,174.035,222.496,174.174,222.496,174.348z"
		/>
</g>
</svg>
